<svg width="251" height="175" viewBox="0 0 251 175" fill="none" xmlns="http://www.w3.org/2000/svg">
<g opacity="0.5">
<circle cx="5.10038" cy="95.6647" r="4" transform="rotate(-70.627 5.10038 95.6647)" fill="#80A0D4"/>
<circle cx="27.7415" cy="103.626" r="4" transform="rotate(-70.627 27.7415 103.626)" fill="#80A0D4"/>
<circle cx="50.3826" cy="111.587" r="4" transform="rotate(-70.627 50.3826 111.587)" fill="#80A0D4"/>
<circle cx="73.0237" cy="119.548" r="4" transform="rotate(-70.627 73.0237 119.548)" fill="#80A0D4"/>
<circle cx="95.6648" cy="127.509" r="4" transform="rotate(-70.627 95.6648 127.509)" fill="#80A0D4"/>
<circle cx="118.306" cy="135.471" r="4" transform="rotate(-70.627 118.306 135.471)" fill="#80A0D4"/>
<circle cx="140.947" cy="143.432" r="4" transform="rotate(-70.627 140.947 143.432)" fill="#80A0D4"/>
<circle cx="163.588" cy="151.393" r="4" transform="rotate(-70.627 163.588 151.393)" fill="#80A0D4"/>
<circle cx="13.0616" cy="73.0236" r="4" transform="rotate(-70.627 13.0616 73.0236)" fill="#80A0D4"/>
<circle cx="35.7027" cy="80.9847" r="4" transform="rotate(-70.627 35.7027 80.9847)" fill="#80A0D4"/>
<circle cx="58.3438" cy="88.9459" r="4" transform="rotate(-70.627 58.3438 88.9459)" fill="#80A0D4"/>
<circle cx="80.9848" cy="96.9071" r="4" transform="rotate(-70.627 80.9848 96.9071)" fill="#80A0D4"/>
<circle cx="103.626" cy="104.868" r="4" transform="rotate(-70.627 103.626 104.868)" fill="#80A0D4"/>
<circle cx="126.267" cy="112.829" r="4" transform="rotate(-70.627 126.267 112.829)" fill="#80A0D4"/>
<circle cx="148.908" cy="120.791" r="4" transform="rotate(-70.627 148.908 120.791)" fill="#80A0D4"/>
<circle cx="171.549" cy="128.752" r="4" transform="rotate(-70.627 171.549 128.752)" fill="#80A0D4"/>
<circle cx="21.0227" cy="50.3825" r="4" transform="rotate(-70.627 21.0227 50.3825)" fill="#80A0D4"/>
<circle cx="43.6639" cy="58.3436" r="4" transform="rotate(-70.627 43.6639 58.3436)" fill="#80A0D4"/>
<circle cx="66.305" cy="66.3048" r="4" transform="rotate(-70.627 66.305 66.3048)" fill="#80A0D4"/>
<circle cx="88.946" cy="74.266" r="4" transform="rotate(-70.627 88.946 74.266)" fill="#80A0D4"/>
<circle cx="111.587" cy="82.2272" r="4" transform="rotate(-70.627 111.587 82.2272)" fill="#80A0D4"/>
<circle cx="134.228" cy="90.1884" r="4" transform="rotate(-70.627 134.228 90.1884)" fill="#80A0D4"/>
<circle cx="156.869" cy="98.1495" r="4" transform="rotate(-70.627 156.869 98.1495)" fill="#80A0D4"/>
<circle cx="179.51" cy="106.111" r="4" transform="rotate(-70.627 179.51 106.111)" fill="#80A0D4"/>
<circle cx="28.984" cy="27.7413" r="4" transform="rotate(-70.627 28.984 27.7413)" fill="#80A0D4"/>
<circle cx="51.6251" cy="35.7025" r="4" transform="rotate(-70.627 51.6251 35.7025)" fill="#80A0D4"/>
<circle cx="74.2662" cy="43.6637" r="4" transform="rotate(-70.627 74.2662 43.6637)" fill="#80A0D4"/>
<circle cx="96.9073" cy="51.6249" r="4" transform="rotate(-70.627 96.9073 51.6249)" fill="#80A0D4"/>
<circle cx="119.548" cy="59.5861" r="4" transform="rotate(-70.627 119.548 59.5861)" fill="#80A0D4"/>
<circle cx="142.189" cy="67.5472" r="4" transform="rotate(-70.627 142.189 67.5472)" fill="#80A0D4"/>
<circle cx="164.831" cy="75.5084" r="4" transform="rotate(-70.627 164.831 75.5084)" fill="#80A0D4"/>
<circle cx="187.472" cy="83.4696" r="4" transform="rotate(-70.627 187.472 83.4696)" fill="#80A0D4"/>
</g>
</svg>
