<svg width="942" height="537" viewBox="0 0 942 537" fill="none" xmlns="http://www.w3.org/2000/svg">
<path opacity="0.05" d="M927.933 526C927.933 726.249 765.767 888.505 565.822 888.505C365.876 888.505 203.71 726.249 203.71 526C203.71 325.751 365.876 163.495 565.822 163.495C765.767 163.495 927.933 325.751 927.933 526Z" stroke="#80A0D4" stroke-opacity="0.8" stroke-width="96"/>
<circle opacity="0.03" cx="567" cy="526" r="519" stroke="#80A0D4" stroke-opacity="0.8" stroke-width="96"/>
<circle cx="619.692" cy="530.719" r="167.005" stroke="#5580C6" stroke-linecap="round" stroke-dasharray="8 8"/>
<circle cx="619.693" cy="530.718" r="242.5" stroke="#5580C6" stroke-linecap="round" stroke-dasharray="8 8"/>
<circle cx="407.374" cy="411.341" r="7.19429" fill="#EFCA08"/>
<circle cx="790.735" cy="362.821" r="36.568" fill="#0041AA" fill-opacity="0.1"/>
<path d="M777.191 365.065V370.489C777.191 371.898 777.963 373.211 779.199 373.887L788.851 379.157C790.009 379.794 791.399 379.794 792.558 379.157L802.21 373.887C803.445 373.211 804.217 371.898 804.217 370.489V365.065L792.558 371.435C791.399 372.072 790.009 372.072 788.851 371.435L777.191 365.065ZM788.851 346.417L772.578 355.297C771.246 356.03 771.246 357.961 772.578 358.694L788.851 367.574C790.009 368.211 791.399 368.211 792.558 367.574L808.078 359.1V370.509C808.078 371.57 808.947 372.439 810.009 372.439C811.07 372.439 811.939 371.57 811.939 370.509V358.134C811.939 357.42 811.553 356.783 810.935 356.436L792.558 346.417C791.399 345.799 790.009 345.799 788.851 346.417Z" fill="#0041AA"/>
</svg>
