<svg width="390" height="280" viewBox="0 0 390 280" fill="none" xmlns="http://www.w3.org/2000/svg">
<path opacity="0.05" d="M331.625 234.5C331.625 301.799 277.134 356.277 210.011 356.277C142.889 356.277 88.3973 301.799 88.3973 234.5C88.3973 167.201 142.889 112.723 210.011 112.723C277.134 112.723 331.625 167.201 331.625 234.5Z" stroke="#80A0D4" stroke-opacity="0.8" stroke-width="96"/>
<circle opacity="0.03" cx="210.5" cy="234.5" r="186.5" stroke="#80A0D4" stroke-opacity="0.8" stroke-width="96"/>
<circle cx="271.295" cy="235.451" r="69.0267" stroke="#5580C6" stroke-width="0.5" stroke-linecap="round" stroke-dasharray="5 5"/>
<circle cx="271.294" cy="235.451" r="100.25" stroke="#5580C6" stroke-width="0.5" stroke-linecap="round" stroke-dasharray="5 5"/>
<circle cx="183.482" cy="186.079" r="2.97542" fill="#EFCA08"/>
<circle cx="342.026" cy="166.012" r="15.1238" fill="#0041AA" fill-opacity="0.1"/>
<path d="M336.426 166.94V169.183C336.426 169.766 336.745 170.309 337.256 170.589L341.248 172.768C341.727 173.032 342.302 173.032 342.781 172.768L346.773 170.589C347.284 170.309 347.603 169.766 347.603 169.183V166.94L342.781 169.575C342.302 169.838 341.727 169.838 341.248 169.575L336.426 166.94ZM341.248 159.228L334.518 162.9C333.967 163.203 333.967 164.002 334.518 164.305L341.248 167.978C341.727 168.241 342.302 168.241 342.781 167.978L349.2 164.473V169.191C349.2 169.631 349.559 169.99 349.998 169.99C350.437 169.99 350.797 169.631 350.797 169.191V164.074C350.797 163.778 350.637 163.515 350.382 163.371L342.781 159.228C342.302 158.972 341.727 158.972 341.248 159.228Z" fill="#0041AA"/>
<path d="M357.679 280.592H360.625L362.678 282.844V288.181C362.678 288.354 362.609 288.519 362.487 288.641C362.364 288.763 362.198 288.832 362.026 288.832H357.679C357.506 288.832 357.34 288.763 357.218 288.641C357.096 288.519 357.027 288.354 357.027 288.181V281.243C357.027 281.07 357.096 280.905 357.218 280.783C357.34 280.661 357.506 280.592 357.679 280.592Z" fill="#FF5C21" stroke="#FF5C21" stroke-width="1.2" stroke-linejoin="round"/>
<circle cx="359.792" cy="284.658" r="8.94417" fill="#FF5C21" fill-opacity="0.1"/>
</svg>
