<svg width="42" height="33" viewBox="0 0 42 33" fill="none" xmlns="http://www.w3.org/2000/svg">
<path d="M21 3.65932C23.5956 2.01237 27.12 1 31 1C34.8822 1 38.4044 2.01237 41 3.65932V31.25C38.4044 29.603 34.8822 28.5907 31 28.5907C27.12 28.5907 23.5956 29.603 21 31.25M21 3.65932V31.25V3.65932ZM21 3.65932C18.4044 2.01237 14.88 1 11 1C7.12 1 3.59556 2.01237 1 3.65932V31.25C3.59556 29.603 7.12 28.5907 11 28.5907C14.88 28.5907 18.4044 29.603 21 31.25V3.65932Z" stroke="#0041AA" stroke-width="2" stroke-linecap="round" stroke-linejoin="round"/>
</svg>