<svg width="32" height="32" viewBox="0 0 32 32" fill="none" xmlns="http://www.w3.org/2000/svg">
<circle opacity="0.1" cx="16" cy="16" r="16" fill="#F4F1FF"/>
<path fill-rule="evenodd" clip-rule="evenodd" d="M13.7442 10.0736C12.7682 10.1177 11.9222 10.3565 11.239 11.0372C10.5535 11.7215 10.3179 12.5714 10.2737 13.538C10.2463 14.1413 10.0858 18.699 10.5512 19.8942C10.865 20.7006 11.483 21.3206 12.2962 21.6356C12.6757 21.7833 13.1088 21.8833 13.7442 21.9125C19.057 22.1531 21.0264 22.0221 21.8569 19.8942C22.0043 19.5154 22.1057 19.0824 22.1337 18.4481C22.3766 13.118 22.0944 11.9627 21.1684 11.0372C20.434 10.3041 19.5701 9.80505 13.7442 10.0736ZM13.7931 20.8405C13.2114 20.8143 12.8958 20.7173 12.6852 20.6357C12.1554 20.4297 11.7575 20.0331 11.5529 19.506C11.1985 18.5978 11.316 14.2843 11.3476 13.5863C11.3787 12.9026 11.5171 12.2778 11.9991 11.7954C12.5957 11.1999 13.3665 10.908 18.6149 11.145C19.2998 11.176 19.9257 11.3142 20.4089 11.7954C21.0056 12.3909 21.3015 13.1682 21.0604 18.4001C21.0342 18.9807 20.9369 19.2958 20.8552 19.506C20.3153 20.8907 19.0731 21.0829 13.7931 20.8405ZM18.6728 12.8138C18.6728 13.208 18.9932 13.5286 19.3887 13.5286C19.7843 13.5286 20.1053 13.208 20.1053 12.8138C20.1053 12.4195 19.7843 12.0992 19.3887 12.0992C18.9932 12.0992 18.6728 12.4195 18.6728 12.8138ZM13.1404 15.9928C13.1404 17.6817 14.512 19.051 16.204 19.051C17.896 19.051 19.2676 17.6817 19.2676 15.9928C19.2676 14.3038 17.896 12.9353 16.204 12.9353C14.512 12.9353 13.1404 14.3038 13.1404 15.9928ZM14.2155 15.9928C14.2155 14.897 15.1057 14.0079 16.204 14.0079C17.3024 14.0079 18.1925 14.897 18.1925 15.9928C18.1925 17.0892 17.3024 17.9785 16.204 17.9785C15.1057 17.9785 14.2155 17.0892 14.2155 15.9928Z" fill="#F4F1FF"/>
</svg>
