<svg width="110" height="75" viewBox="0 0 110 75" fill="none" xmlns="http://www.w3.org/2000/svg">
<circle cx="3.82529" cy="3.82517" r="3" transform="rotate(-70.627 3.82529 3.82517)" fill="#80A0D4"/>
<circle cx="20.8061" cy="9.79611" r="3" transform="rotate(-70.627 20.8061 9.79611)" fill="#80A0D4"/>
<circle cx="37.787" cy="15.7671" r="3" transform="rotate(-70.627 37.787 15.7671)" fill="#80A0D4"/>
<circle cx="54.7678" cy="21.7378" r="3" transform="rotate(-70.627 54.7678 21.7378)" fill="#80A0D4"/>
<circle cx="71.7486" cy="27.7087" r="3" transform="rotate(-70.627 71.7486 27.7087)" fill="#80A0D4"/>
<circle cx="88.7294" cy="33.6797" r="3" transform="rotate(-70.627 88.7294 33.6797)" fill="#80A0D4"/>
<circle cx="105.71" cy="39.6506" r="3" transform="rotate(-70.627 105.71 39.6506)" fill="#80A0D4"/>
<circle cx="3.82529" cy="19.3012" r="3" transform="rotate(-70.627 3.82529 19.3012)" fill="#80A0D4"/>
<circle cx="20.8061" cy="25.2722" r="3" transform="rotate(-70.627 20.8061 25.2722)" fill="#80A0D4"/>
<circle cx="37.787" cy="31.2431" r="3" transform="rotate(-70.627 37.787 31.2431)" fill="#80A0D4"/>
<circle cx="54.7678" cy="37.2138" r="3" transform="rotate(-70.627 54.7678 37.2138)" fill="#80A0D4"/>
<circle cx="71.7486" cy="43.1848" r="3" transform="rotate(-70.627 71.7486 43.1848)" fill="#80A0D4"/>
<circle cx="88.7294" cy="49.1557" r="3" transform="rotate(-70.627 88.7294 49.1557)" fill="#80A0D4"/>
<circle cx="105.71" cy="55.1267" r="3" transform="rotate(-70.627 105.71 55.1267)" fill="#80A0D4"/>
<circle cx="3.82529" cy="34.7771" r="3" transform="rotate(-70.627 3.82529 34.7771)" fill="#80A0D4"/>
<circle cx="20.8061" cy="40.748" r="3" transform="rotate(-70.627 20.8061 40.748)" fill="#80A0D4"/>
<circle cx="37.787" cy="46.719" r="3" transform="rotate(-70.627 37.787 46.719)" fill="#80A0D4"/>
<circle cx="54.7678" cy="52.6897" r="3" transform="rotate(-70.627 54.7678 52.6897)" fill="#80A0D4"/>
<circle cx="71.7486" cy="58.6606" r="3" transform="rotate(-70.627 71.7486 58.6606)" fill="#80A0D4"/>
<circle cx="88.7294" cy="64.6316" r="3" transform="rotate(-70.627 88.7294 64.6316)" fill="#80A0D4"/>
<circle cx="105.71" cy="70.6025" r="3" transform="rotate(-70.627 105.71 70.6025)" fill="#80A0D4"/>
</svg>
