<svg width="32" height="32" viewBox="0 0 32 32" fill="none" xmlns="http://www.w3.org/2000/svg">
<circle opacity="0.1" cx="16" cy="16" r="16" fill="white"/>
<path fill-rule="evenodd" clip-rule="evenodd" d="M13.8797 21C18.4047 21 20.8798 17.1522 20.8798 13.8158C20.8798 13.7062 20.8798 13.5975 20.8726 13.4892C21.3541 13.1323 21.7696 12.6892 22.1 12.1821C21.6515 12.3864 21.1748 12.5204 20.6874 12.5795C21.2006 12.2638 21.5849 11.7679 21.769 11.1827C21.2857 11.4768 20.7575 11.6844 20.2065 11.7958C19.2747 10.7792 17.7164 10.73 16.7253 11.6862C16.0867 12.3028 15.8151 13.2221 16.0136 14.099C14.0356 13.9968 12.1924 13.0381 10.9429 11.461C10.29 12.6148 10.6239 14.0902 11.705 14.8311C11.3134 14.8194 10.9303 14.7112 10.5879 14.5155V14.5476C10.5885 15.7494 11.4142 16.7842 12.5618 17.0223C12.1996 17.1238 11.8195 17.1385 11.4513 17.0653C11.7733 18.0942 12.6973 18.7989 13.7496 18.8192C12.8784 19.5219 11.8021 19.9035 10.6941 19.9023C10.4986 19.9016 10.3031 19.8899 10.1083 19.866C11.2337 20.6068 12.5426 21 13.8797 20.9982" fill="#F4F1FF"/>
</svg>
