<svg width="41" height="40" viewBox="0 0 41 40" fill="none" xmlns="http://www.w3.org/2000/svg">
<g id="&#240;&#159;&#166;&#134; icon &#34;menu book&#34;">
<path id="Vector" d="M35.2999 8.33333C33.4499 7.75 31.4165 7.5 29.4666 7.5C26.2166 7.5 22.7166 8.16667 20.2999 10C17.8832 8.16667 14.3832 7.5 11.1332 7.5C7.88322 7.5 4.38322 8.16667 1.96655 10V34.4167C1.96655 34.8333 2.38322 35.25 2.79989 35.25C2.96655 35.25 3.04989 35.1667 3.21655 35.1667C5.46655 34.0833 8.71655 33.3333 11.1332 33.3333C14.3832 33.3333 17.8832 34 20.2999 35.8333C22.5499 34.4167 26.6332 33.3333 29.4666 33.3333C32.2165 33.3333 35.0499 33.8333 37.3832 35.0833C37.5499 35.1667 37.6332 35.1667 37.7999 35.1667C38.2165 35.1667 38.6332 34.75 38.6332 34.3333V10C37.6332 9.25 36.5499 8.75 35.2999 8.33333ZM35.2999 30.8333C33.4665 30.25 31.4666 30 29.4666 30C26.6332 30 22.5499 31.0833 20.2999 32.5V13.3333C22.5499 11.9167 26.6332 10.8333 29.4666 10.8333C31.4666 10.8333 33.4665 11.0833 35.2999 11.6667V30.8333Z" fill="#0041AA"/>
<path id="Vector_2" d="M29.4666 17.5C30.9332 17.5 32.3499 17.65 33.6332 17.9333V15.4C32.3166 15.15 30.8999 15 29.4666 15C26.6332 15 24.0666 15.4833 21.9666 16.3833V19.15C23.8499 18.0833 26.4666 17.5 29.4666 17.5Z" fill="#0041AA"/>
<path id="Vector_3" d="M21.9666 20.8164V23.5831C23.8499 22.5164 26.4666 21.9331 29.4666 21.9331C30.9332 21.9331 32.3499 22.0831 33.6332 22.3664V19.8331C32.3166 19.5831 30.8999 19.4331 29.4666 19.4331C26.6332 19.4331 24.0666 19.9331 21.9666 20.8164Z" fill="#0041AA"/>
<path id="Vector_4" d="M29.4666 23.8835C26.6332 23.8835 24.0666 24.3669 21.9666 25.2669V28.0335C23.8499 26.9669 26.4666 26.3835 29.4666 26.3835C30.9332 26.3835 32.3499 26.5335 33.6332 26.8169V24.2835C32.3166 24.0169 30.8999 23.8835 29.4666 23.8835Z" fill="#0041AA"/>
</g>
</svg>
